<?xml version="1.0" encoding="UTF-8"?>
<svg id="Layer_1" data-name="Layer 1" xmlns="http://www.w3.org/2000/svg" viewBox="0 0 571.3 216.11">
  <defs>
    <style>
      .cls-1 {
        fill: #1e7a8d;
      }

      .cls-2 {
        isolation: isolate;
      }

      .cls-3 {
        fill: #f15943;
      }

      .cls-4 {
        fill: none;
        stroke: #1e7a8d;
        stroke-miterlimit: 10;
        stroke-width: .96px;
      }
    </style>
  </defs>
  <g id="logo">
    <rect id="Rectangle_556" data-name="Rectangle 556" class="cls-4" x="2.66" y="17.53" width="125.57" height="182.81"/>
    <g id="N" class="cls-2">
      <g class="cls-2">
        <path class="cls-1" d="m92.14,149.49l-48.3-65.55c-.98-1.32-1.85-2.64-2.6-3.96l-.74-1.13h-.23c.08.98.11,2.17.11,3.56v67.08h-5.6v-81.1h4.3l47.96,64.98c1.06,1.43,2.21,3.17,3.45,5.2h.28c-.19-2.64-.28-4.9-.28-6.79v-63.4h5.6v81.1h-3.96Z"/>
      </g>
    </g>
    <g id="Natraj" class="cls-2">
      <g class="cls-2">
        <path class="cls-3" d="m236.63,18.02c-2.54.15-4.42.53-5.65,1.14-1.23.62-2.06,1.63-2.5,3.04-.43,1.41-.65,3.49-.65,6.24v64.83h-2.5l-45.61-70.48v57.34c0,2.82.23,4.92.71,6.3.47,1.38,1.39,2.37,2.77,2.99,1.37.62,3.51,1,6.41,1.14v2.17c-2.61-.22-6.3-.33-11.08-.33-4.34,0-7.71.11-10.1.33v-2.17c2.53-.14,4.42-.52,5.65-1.14,1.23-.61,2.06-1.63,2.5-3.04.43-1.41.65-3.49.65-6.24V27.36c0-2.75-.22-4.74-.65-5.97-.43-1.23-1.25-2.06-2.44-2.5-1.19-.43-3.09-.72-5.7-.87v-2.17c2.39.22,5.75.33,10.1.33,3.26,0,6.08-.11,8.47-.33l38.33,59.07V28.45c0-2.82-.24-4.92-.71-6.3-.47-1.37-1.39-2.37-2.77-2.99-1.38-.61-3.51-.99-6.41-1.14v-2.17c2.61.22,6.3.33,11.08.33,4.34,0,7.71-.11,10.1-.33v2.17Z"/>
      </g>
      <g class="cls-2">
        <path class="cls-3" d="m245.91,90.07c-2.21-2.28-3.31-5.45-3.31-9.5,0-3.26.89-5.94,2.66-8.04,1.77-2.1,3.87-3.76,6.3-5,2.42-1.23,5.63-2.53,9.61-3.91,4.05-1.37,7.06-2.64,9.01-3.8,1.96-1.16,2.93-2.71,2.93-4.67v-6.73c0-4.2-.89-7.08-2.66-8.63-1.77-1.56-4.25-2.33-7.44-2.33-5.07,0-8.65,1.3-10.75,3.91,1.45.36,2.66,1.12,3.64,2.28.98,1.16,1.47,2.61,1.47,4.34s-.58,3.24-1.74,4.29c-1.16,1.05-2.64,1.57-4.45,1.57-2.03,0-3.55-.63-4.56-1.9-1.01-1.27-1.52-2.8-1.52-4.62s.42-3.18,1.25-4.34c.83-1.16,2.08-2.32,3.75-3.47,1.74-1.23,3.94-2.24,6.62-3.04,2.68-.8,5.61-1.19,8.8-1.19,5.65,0,9.92,1.34,12.81,4.02,1.81,1.67,3.02,3.68,3.64,6.03.61,2.35.92,5.45.92,9.28v30.19c0,1.81.25,3.11.76,3.91.5.8,1.37,1.19,2.61,1.19.87,0,1.68-.2,2.44-.6.76-.4,1.57-.96,2.44-1.68l1.19,1.85c-1.88,1.45-3.49,2.48-4.83,3.09-1.34.61-3.02.92-5.05.92-3.47,0-5.9-.87-7.28-2.61-1.38-1.74-2.06-4.09-2.06-7.06-2.17,3.62-4.67,6.14-7.49,7.55s-6.01,2.12-9.56,2.12c-4.56,0-7.95-1.14-10.15-3.42Zm27.2-9.18v-21.28c-.65,1.01-1.56,1.85-2.71,2.5-1.16.65-2.93,1.52-5.32,2.61-2.75,1.16-4.98,2.26-6.68,3.31-1.7,1.05-3.17,2.48-4.4,4.29-1.23,1.81-1.85,4.13-1.85,6.95,0,3.26.8,5.72,2.39,7.38,1.59,1.67,3.69,2.5,6.3,2.5,4.78,0,8.87-2.75,12.27-8.25Z"/>
        <path class="cls-3" d="m313.07,36.92h16.07v2.17h-16.07v42.02c0,3.26.6,5.61,1.79,7.06,1.19,1.45,2.91,2.17,5.16,2.17s4.16-.9,5.75-2.71c1.59-1.81,2.93-4.78,4.02-8.9l2.17.54c-1.81,9.99-6.51,14.99-14.12,14.99-2.46,0-4.49-.29-6.08-.87-1.59-.58-3-1.48-4.24-2.71-1.59-1.59-2.7-3.55-3.31-5.86-.62-2.32-.92-5.43-.92-9.34v-36.38h-10.42v-2.17h10.42v-16.61c4.05-.14,7.31-.65,9.77-1.52v18.13Z"/>
        <path class="cls-3" d="m374.91,37.79c1.85,1.67,2.77,3.69,2.77,6.08,0,1.88-.56,3.49-1.68,4.83-1.12,1.34-2.62,2.01-4.51,2.01-1.59,0-2.95-.51-4.07-1.52-1.12-1.01-1.68-2.39-1.68-4.13,0-2.39,1.23-4.34,3.69-5.86-.51-.72-1.27-1.09-2.28-1.09-2.82,0-5.39,1.1-7.71,3.31-2.32,2.21-4.13,4.91-5.43,8.09-1.3,3.19-1.96,6.19-1.96,9.01v23.02c0,3.33.96,5.65,2.88,6.95,1.92,1.3,4.79,1.95,8.63,1.95v2.28l-2.61-.11c-7.38-.22-12.09-.33-14.12-.33-1.88,0-6.15.15-12.81.43v-2.28c3.04,0,5.17-.56,6.41-1.68,1.23-1.12,1.85-3.17,1.85-6.14v-33.99c0-3.33-.62-5.76-1.85-7.28-1.23-1.52-3.37-2.28-6.41-2.28v-2.28c2.32.22,4.56.33,6.73.33,4.56,0,8.32-.51,11.29-1.52v13.57c1.3-3.62,3.38-6.84,6.24-9.66,2.86-2.82,6.03-4.23,9.5-4.23,2.89,0,5.27.83,7.11,2.5Z"/>
        <path class="cls-3" d="m386.75,90.07c-2.21-2.28-3.31-5.45-3.31-9.5,0-3.26.89-5.94,2.66-8.04,1.77-2.1,3.87-3.76,6.3-5,2.42-1.23,5.63-2.53,9.61-3.91,4.05-1.37,7.06-2.64,9.01-3.8,1.96-1.16,2.93-2.71,2.93-4.67v-6.73c0-4.2-.89-7.08-2.66-8.63-1.77-1.56-4.25-2.33-7.44-2.33-5.07,0-8.65,1.3-10.75,3.91,1.45.36,2.66,1.12,3.64,2.28.98,1.16,1.47,2.61,1.47,4.34s-.58,3.24-1.74,4.29c-1.16,1.05-2.64,1.57-4.45,1.57-2.03,0-3.55-.63-4.56-1.9-1.01-1.27-1.52-2.8-1.52-4.62s.42-3.18,1.25-4.34c.83-1.16,2.08-2.32,3.75-3.47,1.74-1.23,3.95-2.24,6.62-3.04,2.68-.8,5.61-1.19,8.8-1.19,5.65,0,9.92,1.34,12.81,4.02,1.81,1.67,3.02,3.68,3.64,6.03.61,2.35.92,5.45.92,9.28v30.19c0,1.81.25,3.11.76,3.91.51.8,1.37,1.19,2.61,1.19.87,0,1.68-.2,2.44-.6.76-.4,1.58-.96,2.44-1.68l1.19,1.85c-1.88,1.45-3.49,2.48-4.83,3.09-1.34.61-3.02.92-5.05.92-3.48,0-5.9-.87-7.28-2.61-1.38-1.74-2.06-4.09-2.06-7.06-2.17,3.62-4.67,6.14-7.49,7.55s-6.01,2.12-9.56,2.12c-4.56,0-7.95-1.14-10.15-3.42Zm27.2-9.18v-21.28c-.65,1.01-1.56,1.85-2.71,2.5-1.16.65-2.93,1.52-5.32,2.61-2.75,1.16-4.98,2.26-6.68,3.31-1.7,1.05-3.17,2.48-4.4,4.29-1.23,1.81-1.85,4.13-1.85,6.95,0,3.26.8,5.72,2.39,7.38,1.59,1.67,3.69,2.5,6.3,2.5,4.78,0,8.87-2.75,12.27-8.25Z"/>
        <path class="cls-3" d="m430.45,111.52c4.42-.22,7.76-2.14,10.04-5.76,2.28-3.62,3.42-8.65,3.42-15.09v-42.02c0-3.33-.62-5.76-1.85-7.28-1.23-1.52-3.37-2.28-6.41-2.28v-2.28c2.24.22,4.49.33,6.73.33,4.56,0,8.32-.51,11.29-1.52v44.63c0,12.02-2.61,20.78-7.82,26.28-1.96,2.03-4.25,3.64-6.9,4.83-2.64,1.19-5.48,1.79-8.52,1.79v-1.63Zm22.26-99.79c1.37,1.38,2.06,3,2.06,4.89s-.69,3.51-2.06,4.89c-1.38,1.38-3,2.06-4.89,2.06s-3.51-.69-4.89-2.06c-1.38-1.37-2.06-3-2.06-4.89s.69-3.51,2.06-4.89c1.38-1.37,3-2.06,4.89-2.06s3.51.69,4.89,2.06Z"/>
      </g>
    </g>
    <g id="Creative" class="cls-2">
      <g class="cls-2">
        <path class="cls-3" d="m215.56,122.3c3.04,1.23,6.01,2.97,8.9,5.21.79.65,1.48.98,2.06.98,1.45,0,2.39-2.17,2.82-6.52h2.5c-.29,4.71-.43,13.03-.43,24.98h-2.5c-.8-4.71-1.52-8.09-2.17-10.15-.65-2.06-1.74-4.03-3.26-5.92-2.17-2.82-4.94-4.94-8.31-6.35-3.37-1.41-7-2.12-10.91-2.12-4.71,0-8.81,1.56-12.33,4.67-3.51,3.11-6.24,7.55-8.2,13.3-1.95,5.75-2.93,12.51-2.93,20.25s1.05,14.66,3.15,20.31c2.1,5.65,5.01,9.94,8.74,12.87,3.73,2.93,7.94,4.4,12.65,4.4,3.62,0,7.13-.69,10.53-2.06,3.4-1.37,6.08-3.44,8.04-6.19,1.45-2.03,2.5-4.2,3.15-6.52.65-2.32,1.27-5.86,1.85-10.64h2.5c0,12.45.14,21.14.43,26.06h-2.5c-.22-2.32-.53-3.96-.92-4.94-.4-.98-.96-1.47-1.68-1.47-.58,0-1.34.29-2.28.87-3.26,2.32-6.37,4.07-9.34,5.27-2.97,1.19-6.55,1.79-10.75,1.79-6.88,0-12.91-1.56-18.08-4.67-5.18-3.11-9.19-7.62-12.05-13.52-2.86-5.9-4.29-12.94-4.29-21.12s1.47-15.02,4.4-21.17c2.93-6.15,7.02-10.93,12.27-14.33,5.25-3.4,11.2-5.1,17.86-5.1,4.34,0,8.04.62,11.08,1.85Z"/>
      </g>
      <g class="cls-2">
        <path class="cls-3" d="m282.94,143.91c1.85,1.67,2.77,3.69,2.77,6.08,0,1.88-.56,3.49-1.68,4.83-1.12,1.34-2.62,2.01-4.51,2.01-1.59,0-2.95-.51-4.07-1.52-1.12-1.01-1.68-2.39-1.68-4.13,0-2.39,1.23-4.34,3.69-5.86-.51-.72-1.27-1.09-2.28-1.09-2.82,0-5.39,1.1-7.71,3.31-2.32,2.21-4.13,4.91-5.43,8.09-1.3,3.19-1.96,6.19-1.96,9.01v23.02c0,3.33.96,5.65,2.88,6.95,1.92,1.3,4.79,1.96,8.63,1.96v2.28l-2.61-.11c-7.38-.22-12.09-.33-14.12-.33-1.88,0-6.15.15-12.81.43v-2.28c3.04,0,5.18-.56,6.41-1.68,1.23-1.12,1.85-3.17,1.85-6.13v-33.99c0-3.33-.62-5.75-1.85-7.28-1.23-1.52-3.37-2.28-6.41-2.28v-2.28c2.32.22,4.56.33,6.73.33,4.56,0,8.32-.51,11.29-1.52v13.57c1.3-3.62,3.38-6.84,6.24-9.66,2.86-2.82,6.03-4.24,9.5-4.24,2.89,0,5.27.83,7.11,2.5Z"/>
      </g>
      <g class="cls-2">
        <path class="cls-3" d="m335.34,185.82c-1.3,3.98-3.75,7.4-7.33,10.26-3.58,2.86-7.91,4.29-12.98,4.29s-9.59-1.18-13.36-3.53c-3.76-2.35-6.64-5.65-8.63-9.88-1.99-4.24-2.99-9.14-2.99-14.71,0-6.3,1.01-11.76,3.04-16.4,2.03-4.63,4.89-8.2,8.58-10.7,3.69-2.5,8-3.75,12.92-3.75,6.52,0,11.53,1.97,15.04,5.92,3.51,3.95,5.27,9.94,5.27,17.97h-33.99c-.22,2.03-.33,4.34-.33,6.95,0,4.78.78,8.94,2.33,12.49,1.56,3.55,3.62,6.28,6.19,8.2,2.57,1.92,5.27,2.88,8.09,2.88,3.47,0,6.55-.83,9.23-2.5,2.68-1.66,4.92-4.45,6.73-8.36l2.17.87Zm-29.97-37.35c-2.46,3.33-3.98,8.25-4.56,14.77h23.67c.14-5.65-.67-10.35-2.44-14.12-1.77-3.76-4.4-5.65-7.87-5.65s-6.34,1.67-8.8,5Z"/>
        <path class="cls-3" d="m347.55,196.19c-2.21-2.28-3.31-5.45-3.31-9.5,0-3.26.89-5.94,2.66-8.04,1.77-2.1,3.87-3.76,6.3-5,2.42-1.23,5.63-2.53,9.61-3.91,4.05-1.37,7.06-2.64,9.01-3.8,1.96-1.16,2.93-2.71,2.93-4.67v-6.73c0-4.2-.89-7.08-2.66-8.63-1.77-1.56-4.25-2.33-7.44-2.33-5.07,0-8.65,1.3-10.75,3.91,1.45.36,2.66,1.12,3.64,2.28.98,1.16,1.47,2.61,1.47,4.34s-.58,3.24-1.74,4.29c-1.16,1.05-2.64,1.58-4.45,1.58-2.03,0-3.55-.63-4.56-1.9-1.01-1.27-1.52-2.8-1.52-4.62s.42-3.18,1.25-4.34c.83-1.16,2.08-2.32,3.75-3.47,1.74-1.23,3.95-2.24,6.62-3.04,2.68-.79,5.61-1.19,8.8-1.19,5.65,0,9.92,1.34,12.81,4.02,1.81,1.67,3.02,3.67,3.64,6.03.61,2.35.92,5.45.92,9.28v30.19c0,1.81.25,3.11.76,3.91.51.8,1.37,1.19,2.61,1.19.87,0,1.68-.2,2.44-.6.76-.4,1.58-.96,2.44-1.68l1.19,1.85c-1.88,1.45-3.49,2.48-4.83,3.09-1.34.61-3.02.92-5.05.92-3.48,0-5.9-.87-7.28-2.61-1.38-1.74-2.06-4.09-2.06-7.06-2.17,3.62-4.67,6.13-7.49,7.55s-6.01,2.12-9.56,2.12c-4.56,0-7.95-1.14-10.15-3.42Zm27.2-9.18v-21.28c-.65,1.01-1.56,1.85-2.71,2.5-1.16.65-2.93,1.52-5.32,2.61-2.75,1.16-4.98,2.26-6.68,3.31-1.7,1.05-3.17,2.48-4.4,4.29-1.23,1.81-1.85,4.13-1.85,6.95,0,3.26.8,5.72,2.39,7.38,1.59,1.67,3.69,2.5,6.3,2.5,4.78,0,8.87-2.75,12.27-8.25Z"/>
        <path class="cls-3" d="m414.71,143.04h16.07v2.17h-16.07v42.02c0,3.26.6,5.61,1.79,7.06,1.19,1.45,2.91,2.17,5.16,2.17s4.16-.9,5.75-2.71c1.59-1.81,2.93-4.78,4.02-8.9l2.17.54c-1.81,9.99-6.51,14.99-14.12,14.99-2.46,0-4.49-.29-6.08-.87-1.59-.58-3-1.48-4.24-2.71-1.59-1.59-2.7-3.55-3.31-5.86-.62-2.32-.92-5.43-.92-9.34v-36.38h-10.42v-2.17h10.42v-16.61c4.05-.14,7.31-.65,9.77-1.52v18.13Z"/>
        <path class="cls-3" d="m453.69,188.76c0,2.97.61,5.01,1.85,6.13,1.23,1.12,3.37,1.68,6.41,1.68v2.28c-6.66-.29-11.04-.43-13.14-.43s-6.48.15-13.14.43v-2.28c3.04,0,5.17-.56,6.41-1.68,1.23-1.12,1.85-3.17,1.85-6.13v-33.99c0-3.33-.62-5.75-1.85-7.28-1.23-1.52-3.37-2.28-6.41-2.28v-2.28c2.32.22,4.56.33,6.73.33,4.56,0,8.32-.51,11.29-1.52v47.02Zm-.76-70.91c1.37,1.38,2.06,3,2.06,4.89s-.69,3.51-2.06,4.89-3,2.06-4.89,2.06-3.51-.69-4.89-2.06c-1.38-1.37-2.06-3-2.06-4.89s.69-3.51,2.06-4.89,3-2.06,4.89-2.06,3.51.69,4.89,2.06Z"/>
      </g>
      <g class="cls-2">
        <path class="cls-3" d="m517.11,142.93v2.17c-1.45.15-2.73.8-3.85,1.95-1.12,1.16-2.19,3.04-3.2,5.65l-17.81,46.69h-1.85l-19.98-48.11c-1.09-2.46-2.14-4.09-3.15-4.89-1.01-.8-2.06-1.19-3.15-1.19v-2.28c3.76.29,6.95.43,9.56.43,5.57,0,10.28-.14,14.12-.43v2.28c-2.68,0-4.63.2-5.86.6-1.23.4-1.85,1.43-1.85,3.09,0,1.01.4,2.61,1.2,4.78l13.36,33.01,11.94-31.38c.8-2.17,1.19-3.87,1.19-5.1,0-1.66-.63-2.88-1.9-3.64-1.27-.76-3.31-1.25-6.14-1.47v-2.17c3.76.22,6.8.33,9.12.33,3.19,0,5.94-.11,8.25-.33Z"/>
      </g>
      <g class="cls-2">
        <path class="cls-3" d="m566.63,185.82c-1.3,3.98-3.75,7.4-7.33,10.26-3.58,2.86-7.91,4.29-12.98,4.29s-9.59-1.18-13.36-3.53c-3.76-2.35-6.64-5.65-8.63-9.88-1.99-4.24-2.99-9.14-2.99-14.71,0-6.3,1.01-11.76,3.04-16.4,2.03-4.63,4.89-8.2,8.58-10.7,3.69-2.5,8-3.75,12.92-3.75,6.52,0,11.53,1.97,15.04,5.92,3.51,3.95,5.27,9.94,5.27,17.97h-33.99c-.22,2.03-.33,4.34-.33,6.95,0,4.78.78,8.94,2.33,12.49,1.56,3.55,3.62,6.28,6.19,8.2,2.57,1.92,5.27,2.88,8.09,2.88,3.47,0,6.55-.83,9.23-2.5,2.68-1.66,4.92-4.45,6.73-8.36l2.17.87Zm-29.97-37.35c-2.46,3.33-3.98,8.25-4.56,14.77h23.67c.14-5.65-.67-10.35-2.44-14.12-1.77-3.76-4.4-5.65-7.87-5.65s-6.34,1.67-8.8,5Z"/>
      </g>
    </g>
  </g>
</svg>